<?xml version="1.0" standalone="no"?>
<!DOCTYPE svg PUBLIC "-//W3C//DTD SVG 20010904//EN"
 "http://www.w3.org/TR/2001/REC-SVG-20010904/DTD/svg10.dtd">
<svg version="1.0" xmlns="http://www.w3.org/2000/svg"
 width="377.000000pt" height="339.000000pt" viewBox="0 0 377.000000 339.000000"
 preserveAspectRatio="xMidYMid meet">

<g transform="translate(0.000000,339.000000) scale(0.100000,-0.100000)"
fill="#ffffff" stroke="none">
<path d="M1390 3313 c-31 -11 -50 -37 -50 -67 0 -25 11 -43 51 -81 106 -104
106 -147 0 -271 -59 -69 -81 -125 -81 -206 0 -82 20 -122 103 -205 60 -62 77
-73 105 -73 38 0 82 37 82 70 0 12 -28 50 -64 89 -97 103 -97 153 -2 265 62
72 86 127 86 201 0 74 -23 127 -81 190 -66 72 -114 100 -149 88z"/>
<path d="M1783 3230 c-12 -5 -26 -18 -32 -29 -21 -38 -12 -64 37 -110 119
-113 126 -177 32 -285 -63 -72 -89 -123 -97 -186 -10 -85 11 -135 92 -217 79
-81 109 -91 159 -52 41 32 34 61 -34 134 -32 35 -62 75 -66 88 -8 34 24 101
76 157 56 62 81 113 87 180 9 100 -32 182 -142 282 -45 40 -79 52 -112 38z"/>
<path d="M2183 3170 c-12 -5 -26 -18 -32 -29 -22 -41 -12 -65 50 -126 116
-113 119 -177 14 -295 -70 -79 -89 -123 -89 -205 0 -49 5 -80 18 -105 27 -50
122 -138 158 -145 41 -9 82 21 86 63 3 27 -4 39 -47 78 -66 61 -79 99 -53 157
11 24 40 67 66 95 68 78 88 122 88 202 0 47 -7 83 -21 115 -32 71 -170 207
-208 204 -4 0 -18 -4 -30 -9z"/>
<path d="M1465 2204 c-314 -23 -562 -72 -638 -126 -41 -29 -34 -66 18 -95 40
-22 160 -54 270 -72 217 -36 993 -50 1260 -23 319 32 490 73 535 127 34 41
-46 97 -187 129 -203 45 -362 58 -793 61 -228 1 -437 1 -465 -1z"/>
<path d="M680 1789 c0 -480 117 -802 395 -1082 80 -81 213 -176 276 -196 88
-28 522 -39 834 -21 154 9 163 11 230 44 84 42 201 139 282 234 l58 69 125 5
c214 10 328 56 456 183 119 117 174 246 174 400 -1 90 -13 143 -53 223 -71
143 -219 246 -373 261 -75 7 -81 6 -122 -20 -137 -87 -466 -137 -963 -146
-661 -12 -1133 48 -1284 163 l-35 26 0 -143z m2468 -146 c59 -36 108 -115 117
-187 22 -179 -123 -345 -324 -372 -58 -8 -59 -5 -33 58 42 99 86 299 97 447
l8 93 44 -5 c24 -2 65 -18 91 -34z m-1918 7 c25 -25 34 -61 27 -107 -15 -92
-110 -100 -132 -10 -16 61 21 137 67 137 10 0 27 -9 38 -20z m259 -4 c29 -31
32 -112 7 -151 -20 -30 -65 -34 -89 -7 -49 54 -21 182 41 182 10 0 29 -11 41
-24z m221 -55 c0 -75 1 -80 22 -83 13 -2 24 -11 26 -20 3 -16 -5 -18 -62 -18
-59 0 -66 2 -66 20 0 13 7 20 19 20 15 0 20 9 23 45 3 43 -4 57 -17 35 -10
-16 -35 -11 -35 7 0 18 57 72 78 73 8 0 12 -22 12 -79z m231 17 c2 -92 2 -93
27 -96 15 -2 22 -10 22 -25 0 -21 -4 -22 -66 -19 -54 3 -65 7 -62 20 2 10 13
18 26 20 19 3 22 9 22 48 0 41 -11 57 -25 34 -9 -14 -25 -12 -31 4 -6 16 52
75 74 76 8 0 12 -20 13 -62z m406 14 c-6 -8 -42 -39 -79 -69 -38 -30 -79 -66
-92 -80 -21 -22 -27 -24 -40 -14 -9 8 -16 19 -16 26 0 6 37 41 83 77 45 36 91
75 101 87 18 20 20 20 38 5 15 -14 16 -20 5 -32z m223 -22 c0 -49 4 -70 13
-72 6 0 19 -1 27 -2 8 -1 16 -11 18 -23 3 -22 1 -23 -88 -23 -89 0 -91 1 -88
23 2 17 11 23 34 25 26 3 33 8 38 34 10 52 8 58 -24 58 -25 0 -30 4 -30 25 0
23 3 25 50 25 l50 0 0 -70z m-296 -184 c50 -21 76 -60 76 -116 0 -40 -5 -52
-31 -78 -38 -37 -77 -47 -124 -32 -99 33 -107 184 -12 225 41 18 50 18 91 1z
m294 -88 l3 -78 30 0 c26 0 30 -3 27 -22 -3 -22 -7 -23 -88 -23 -81 0 -85 1
-88 23 -3 19 1 22 31 22 34 0 35 1 40 47 6 57 3 63 -29 63 -17 0 -24 6 -24 18
0 28 10 33 55 30 l40 -3 3 -77z m-1342 64 c35 -23 44 -98 20 -157 -13 -30 -20
-35 -49 -35 -45 0 -69 28 -74 87 -5 63 23 113 64 113 16 0 33 -4 39 -8z m271
-19 c24 -36 22 -126 -2 -153 -10 -11 -30 -20 -45 -20 -39 0 -63 32 -68 93 -3
42 0 57 18 80 29 37 73 37 97 0z m215 -55 c3 -80 4 -83 26 -80 17 3 22 -2 22
-17 0 -19 -6 -21 -65 -21 -53 0 -65 3 -65 16 0 9 9 18 20 21 15 4 20 14 20 38
0 19 3 41 7 51 7 18 7 18 -44 -3 -29 -11 -12 36 20 56 52 33 56 29 59 -61z
m252 60 c10 -14 16 -44 16 -78 0 -71 -19 -100 -65 -100 -46 0 -65 29 -65 100
0 43 5 62 20 78 27 29 74 29 94 0z m322 -244 c86 -41 85 -168 -2 -209 -81 -38
-164 13 -164 101 0 56 12 79 53 104 39 24 68 25 113 4z m-578 -82 c3 -80 4
-82 27 -82 18 0 25 -5 25 -20 0 -18 -7 -20 -65 -20 -58 0 -65 2 -65 20 0 13 7
20 20 20 17 0 20 7 20 52 0 49 -1 50 -18 35 -25 -23 -32 -21 -32 5 0 22 57 79
75 74 6 -1 11 -39 13 -84z m-482 70 c39 -25 46 -124 13 -166 -28 -36 -72 -35
-96 1 -25 38 -24 124 1 152 19 21 61 28 82 13z m258 -38 c3 -26 6 -62 6 -80 0
-24 5 -34 15 -34 8 0 15 -9 15 -20 0 -18 -7 -20 -65 -20 -58 0 -65 2 -65 20 0
14 7 20 24 20 21 0 24 6 29 48 6 55 3 61 -21 39 -20 -18 -32 -13 -32 12 0 19
49 60 71 61 12 0 18 -13 23 -46z m456 -34 c0 -79 0 -80 25 -80 18 0 25 -5 25
-20 0 -18 -7 -20 -65 -20 -58 0 -65 2 -65 20 0 15 7 20 25 20 23 0 25 3 25 50
l0 50 -25 -16 c-23 -15 -25 -15 -32 2 -5 13 3 25 27 46 54 44 60 39 60 -52z
m630 5 l0 -75 31 0 c26 0 30 -3 27 -22 -3 -21 -9 -23 -85 -26 -83 -3 -83 -3
-83 23 0 22 4 25 35 25 l35 0 0 50 c0 49 -1 50 -30 50 -25 0 -30 4 -30 25 0
23 3 25 50 25 l50 0 0 -75z m-275 -185 c43 -21 72 -59 75 -100 5 -64 -1 -83
-38 -120 -50 -50 -94 -59 -156 -31 -38 16 -51 29 -67 67 -35 78 -9 151 66 185
51 24 69 24 120 -1z m-810 -25 c20 -19 25 -34 25 -75 0 -57 -11 -84 -41 -100
-64 -35 -114 70 -73 155 14 30 26 39 57 44 4 0 19 -10 32 -24z m227 -57 c3
-77 5 -83 26 -86 14 -2 22 -10 22 -23 0 -17 -7 -19 -66 -19 -62 0 -65 1 -62
23 2 14 11 23 26 25 19 3 22 9 22 49 0 36 -3 44 -15 39 -8 -3 -22 -9 -30 -12
-28 -11 -16 29 18 57 50 44 56 39 59 -53z m233 -9 c2 -67 5 -74 24 -77 13 -2
21 -11 21 -23 0 -17 -7 -19 -65 -19 -58 0 -65 2 -65 20 0 15 7 20 25 20 23 0
25 3 25 50 0 47 -11 63 -25 40 -9 -15 -35 -12 -35 4 0 20 72 78 83 67 5 -5 10
-42 12 -82z m-700 51 c18 -34 19 -77 4 -117 -13 -34 -26 -43 -61 -43 -36 0
-63 41 -63 95 0 59 27 95 70 95 28 0 37 -5 50 -30z m1355 10 c0 -18 -7 -20
-65 -20 -47 0 -65 4 -65 13 0 23 11 27 72 27 51 0 58 -2 58 -20z"/>
<path d="M1169 1603 c-13 -34 1 -98 21 -98 22 0 36 68 22 100 -15 32 -30 32
-43 -2z"/>
<path d="M1431 1611 c-14 -25 -14 -52 -1 -85 20 -55 58 8 41 70 -9 35 -26 41
-40 15z"/>
<path d="M2189 1349 c-28 -28 -22 -76 12 -102 23 -16 30 -17 50 -6 52 27 61
61 28 103 -25 32 -61 34 -90 5z"/>
<path d="M1175 1360 c-11 -18 -7 -100 6 -116 29 -35 51 42 29 100 -10 27 -24
33 -35 16z"/>
<path d="M1425 1328 c-7 -41 7 -93 25 -93 19 0 33 50 26 91 -9 47 -43 48 -51
2z"/>
<path d="M1902 1358 c-18 -18 -16 -114 3 -122 8 -3 19 3 25 14 24 45 1 137
-28 108z"/>
<path d="M2187 1072 c-41 -45 -4 -109 61 -103 20 2 52 39 52 61 0 50 -79 79
-113 42z"/>
<path d="M1169 1058 c-6 -49 1 -78 18 -85 19 -8 33 14 33 54 0 44 -9 63 -30
63 -13 0 -19 -9 -21 -32z"/>
<path d="M1431 812 c-25 -47 1 -134 31 -104 18 18 16 88 -4 108 -15 15 -17 15
-27 -4z"/>
<path d="M1180 815 c-17 -21 -17 -92 -1 -108 30 -30 56 69 28 107 -12 17 -14
17 -27 1z"/>
<path d="M845 683 c-212 -26 -393 -66 -464 -102 -43 -22 -91 -74 -91 -98 0
-49 136 -118 306 -157 333 -75 1091 -114 1684 -86 687 32 1088 108 1152 216
17 28 16 31 -2 62 -45 73 -259 136 -570 166 l-56 6 -79 -80 c-70 -71 -77 -80
-55 -80 106 -1 430 -38 430 -50 0 -9 -83 -27 -215 -46 -431 -60 -1073 -78
-1615 -43 -284 18 -654 70 -633 89 11 10 224 38 343 46 l95 7 -81 78 c-49 49
-88 78 -100 78 -10 -1 -32 -4 -49 -6z"/>
<path d="M745 174 c-14 -15 -15 -19 -2 -31 73 -73 1152 -122 1727 -78 477 36
595 60 540 110 -18 16 -34 18 -168 12 -81 -4 -183 -11 -227 -16 -44 -5 -222
-15 -395 -21 -345 -14 -832 -3 -1135 25 -221 20 -319 20 -340 -1z"/>
</g>
</svg>
